<mxfile host="app.diagrams.net" modified="2024-06-21T07:02:45.149Z" agent="Mozilla/5.0 (Macintosh; Intel Mac OS X 10_15_7) AppleWebKit/605.1.15 (KHTML, like Gecko) Version/17.4.1 Safari/605.1.15" etag="W1pnTOYRbkM0X4y3SUXS" version="24.5.5" type="device">
  <diagram name="Page-1" id="ii7bhTCRWpu3OyBYiUoO">
    <mxGraphModel dx="1434" dy="748" grid="1" gridSize="9" guides="1" tooltips="1" connect="1" arrows="1" fold="1" page="1" pageScale="1" pageWidth="827" pageHeight="1169" math="0" shadow="0">
      <root>
        <mxCell id="0" />
        <mxCell id="1" parent="0" />
        <mxCell id="TMlA0Yx2lm0R3rUJjZGb-22" value="" style="whiteSpace=wrap;html=1;dashed=1;dashPattern=8 8;fillColor=none;strokeWidth=1;" vertex="1" parent="1">
          <mxGeometry x="60" y="450" width="280" height="460" as="geometry" />
        </mxCell>
        <mxCell id="TMlA0Yx2lm0R3rUJjZGb-24" style="edgeStyle=orthogonalEdgeStyle;rounded=0;orthogonalLoop=1;jettySize=auto;html=1;entryX=0.5;entryY=0;entryDx=0;entryDy=0;" edge="1" parent="1" source="TMlA0Yx2lm0R3rUJjZGb-1" target="TMlA0Yx2lm0R3rUJjZGb-18">
          <mxGeometry relative="1" as="geometry" />
        </mxCell>
        <mxCell id="TMlA0Yx2lm0R3rUJjZGb-1" value="" style="sketch=0;outlineConnect=0;fontColor=#232F3E;gradientColor=none;fillColor=#232F3D;strokeColor=none;dashed=0;verticalLabelPosition=bottom;verticalAlign=top;align=center;html=1;fontSize=12;fontStyle=0;aspect=fixed;pointerEvents=1;shape=mxgraph.aws4.user;shadow=0;" vertex="1" parent="1">
          <mxGeometry x="120" y="160" width="170" height="170" as="geometry" />
        </mxCell>
        <mxCell id="TMlA0Yx2lm0R3rUJjZGb-25" style="edgeStyle=orthogonalEdgeStyle;rounded=0;orthogonalLoop=1;jettySize=auto;html=1;entryX=0.5;entryY=1;entryDx=0;entryDy=0;" edge="1" parent="1" source="TMlA0Yx2lm0R3rUJjZGb-3" target="TMlA0Yx2lm0R3rUJjZGb-18">
          <mxGeometry relative="1" as="geometry" />
        </mxCell>
        <mxCell id="TMlA0Yx2lm0R3rUJjZGb-26" style="edgeStyle=orthogonalEdgeStyle;rounded=0;orthogonalLoop=1;jettySize=auto;html=1;exitX=1;exitY=0.5;exitDx=0;exitDy=0;entryX=0;entryY=0.5;entryDx=0;entryDy=0;" edge="1" parent="1" source="TMlA0Yx2lm0R3rUJjZGb-3" target="TMlA0Yx2lm0R3rUJjZGb-8">
          <mxGeometry relative="1" as="geometry" />
        </mxCell>
        <mxCell id="TMlA0Yx2lm0R3rUJjZGb-3" value="" style="rounded=0;whiteSpace=wrap;html=1;" vertex="1" parent="1">
          <mxGeometry x="102.75" y="700" width="205" height="150" as="geometry" />
        </mxCell>
        <mxCell id="TMlA0Yx2lm0R3rUJjZGb-4" value="&lt;b&gt;Busy user&lt;/b&gt;&lt;div&gt;[&lt;i&gt;Person&lt;/i&gt;]&lt;/div&gt;&lt;div&gt;User of the to-do app&lt;/div&gt;" style="text;html=1;align=center;verticalAlign=middle;whiteSpace=wrap;rounded=0;" vertex="1" parent="1">
          <mxGeometry x="165" y="276" width="80" height="30" as="geometry" />
        </mxCell>
        <mxCell id="TMlA0Yx2lm0R3rUJjZGb-5" value="Records tasks and marks them complete using" style="text;html=1;align=center;verticalAlign=middle;whiteSpace=wrap;rounded=0;" vertex="1" parent="1">
          <mxGeometry x="110" y="380" width="80" height="30" as="geometry" />
        </mxCell>
        <mxCell id="TMlA0Yx2lm0R3rUJjZGb-7" value="&lt;b&gt;Multi-page web application&lt;/b&gt;&lt;br&gt;&lt;div&gt;[&lt;i&gt;Container: Python and HTML/CSS&lt;/i&gt;]&lt;/div&gt;&lt;div&gt;Provides the functionality for users to create/delete tasks and make them as complete/incomplete&lt;/div&gt;" style="text;html=1;align=center;verticalAlign=middle;whiteSpace=wrap;rounded=0;" vertex="1" parent="1">
          <mxGeometry x="122.75" y="730" width="160" height="80" as="geometry" />
        </mxCell>
        <mxCell id="TMlA0Yx2lm0R3rUJjZGb-8" value="" style="rounded=0;whiteSpace=wrap;html=1;" vertex="1" parent="1">
          <mxGeometry x="560" y="470" width="205" height="150" as="geometry" />
        </mxCell>
        <mxCell id="TMlA0Yx2lm0R3rUJjZGb-9" value="&lt;b&gt;Trello&lt;/b&gt;&lt;br&gt;&lt;div&gt;[&lt;i&gt;Software system&lt;/i&gt;]&lt;/div&gt;&lt;div&gt;Atlassian project management board - stores users tasks and their status&lt;/div&gt;" style="text;html=1;align=center;verticalAlign=middle;whiteSpace=wrap;rounded=0;" vertex="1" parent="1">
          <mxGeometry x="582.5" y="505" width="160" height="80" as="geometry" />
        </mxCell>
        <mxCell id="TMlA0Yx2lm0R3rUJjZGb-10" value="Makes API calls to" style="text;html=1;align=center;verticalAlign=middle;whiteSpace=wrap;rounded=0;" vertex="1" parent="1">
          <mxGeometry x="441" y="639" width="80" height="30" as="geometry" />
        </mxCell>
        <mxCell id="TMlA0Yx2lm0R3rUJjZGb-18" value="" style="rounded=0;whiteSpace=wrap;html=1;" vertex="1" parent="1">
          <mxGeometry x="106.5" y="477" width="197.5" height="150" as="geometry" />
        </mxCell>
        <mxCell id="TMlA0Yx2lm0R3rUJjZGb-19" value="&lt;b&gt;Web framework&lt;/b&gt;&lt;br&gt;&lt;div&gt;[&lt;i&gt;Container: Flask&lt;/i&gt;]&lt;/div&gt;&lt;div&gt;Provides a server for delivering to do list to the user via their web browser&lt;/div&gt;" style="text;html=1;align=center;verticalAlign=middle;whiteSpace=wrap;rounded=0;" vertex="1" parent="1">
          <mxGeometry x="125.5" y="512" width="160" height="80" as="geometry" />
        </mxCell>
        <mxCell id="TMlA0Yx2lm0R3rUJjZGb-23" value="&lt;b&gt;To do app&lt;/b&gt;&lt;br&gt;&lt;div&gt;[&lt;i&gt;Software system&lt;/i&gt;]&lt;/div&gt;" style="text;html=1;align=center;verticalAlign=middle;whiteSpace=wrap;rounded=0;" vertex="1" parent="1">
          <mxGeometry x="40" y="850" width="160" height="80" as="geometry" />
        </mxCell>
      </root>
    </mxGraphModel>
  </diagram>
</mxfile>
